<?xml version="1.0" encoding="utf-8"?>
<!-- Generator: Adobe Illustrator 16.0.0, SVG Export Plug-In . SVG Version: 6.00 Build 0)  -->
<!DOCTYPE svg PUBLIC "-//W3C//DTD SVG 1.1//EN" "http://www.w3.org/Graphics/SVG/1.1/DTD/svg11.dtd">
<svg version="1.1" xmlns="http://www.w3.org/2000/svg" xmlns:xlink="http://www.w3.org/1999/xlink" x="0px" y="0px" width="700px"
	 height="700px" viewBox="0 0 700 700" enable-background="new 0 0 700 700" xml:space="preserve">
<g id="Layer_1">
	<g>
		<path class="logo" d="M312.5,9h83.653L687.5,691H579.808l-68.269-168H187.501l-67.309,168H12.5L312.5,9z M477.886,441L350.961,128.846h-1.922
			L220.192,441H477.886z"/>
	</g>
</g>
<g id="Layer_2" opacity="0">
	<circle class="anchor" fill="#FF0000" cx="312" cy="9.114" r="1"/>
	<circle class="anchor" fill="#FF0000" cx="396" cy="9.114" r="1"/>
	<circle class="anchor" fill="#FF0000" cx="350" cy="129.114" r="1"/>
	<circle class="anchor" fill="#FF0000" cx="221" cy="441.114" r="1"/>
	<circle class="anchor" fill="#FF0000" cx="478" cy="441.114" r="1"/>
	<circle class="anchor" fill="#FF0000" cx="512" cy="523.114" r="1"/>
	<circle class="anchor" fill="#FF0000" cx="581" cy="441.114" r="1"/>
	<circle class="anchor" fill="#FF0000" cx="616" cy="523.114" r="1"/>
	<circle class="anchor" fill="#FF0000" cx="188" cy="523.114" r="1"/>
	<circle class="anchor" fill="#FF0000" cx="122" cy="441.114" r="1"/>
	<circle class="anchor" fill="#FF0000" cx="86" cy="523.114" r="1"/>
	<circle class="anchor" fill="#FF0000" cx="120" cy="691.114" r="1"/>
	<circle class="anchor" fill="#FF0000" cx="580" cy="691.114" r="1"/>
	<circle class="anchor" fill="#FF0000" cx="688" cy="691.114" r="1"/>
	<circle class="anchor" fill="#FF0000" cx="12" cy="691.114" r="1"/>
</g>
</svg>
